<?xml version="1.0" encoding="UTF-8" standalone="no"?>
<!-- Created with Inkscape (http://www.inkscape.org/) -->

<svg
   xmlns:dc="http://purl.org/dc/elements/1.1/"
   xmlns:cc="http://creativecommons.org/ns#"
   xmlns:rdf="http://www.w3.org/1999/02/22-rdf-syntax-ns#"
   xmlns:svg="http://www.w3.org/2000/svg"
   xmlns="http://www.w3.org/2000/svg"
   xmlns:xlink="http://www.w3.org/1999/xlink"
   xmlns:sodipodi="http://sodipodi.sourceforge.net/DTD/sodipodi-0.dtd"
   xmlns:inkscape="http://www.inkscape.org/namespaces/inkscape"
   width="40mm"
   height="80mm"
   viewBox="0 0 141.73228 283.46458"
   id="svg7090"
   version="1.1"
   inkscape:version="0.91 r13725"
   sodipodi:docname="website-background.svg"
   inkscape:export-filename="/Users/chrisjrn/Desktop/tinyletter-background.png"
   inkscape:export-xdpi="635"
   inkscape:export-ydpi="635">
  <defs
     id="defs7092">
    <linearGradient
       id="linearGradient6747">
      <stop
         id="stop6749"
         offset="0"
         style="stop-color:#3c9c00;stop-opacity:1" />
      <stop
         id="stop6751"
         offset="1"
         style="stop-color:#309600;stop-opacity:1;" />
    </linearGradient>
    <clipPath
       id="clipPath3055"
       clipPathUnits="userSpaceOnUse">
      <path
         id="path3057"
         d="M 0,0 487,0 487,172 0,172 0,0 Z"
         inkscape:connector-curvature="0" />
    </clipPath>
    <linearGradient
       id="linearGradient2795">
      <stop
         style="stop-color:#b8b8b8;stop-opacity:0.49803922;"
         offset="0"
         id="stop2797" />
      <stop
         style="stop-color:#7f7f7f;stop-opacity:0;"
         offset="1"
         id="stop2799" />
    </linearGradient>
    <linearGradient
       id="linearGradient2787">
      <stop
         style="stop-color:#7f7f7f;stop-opacity:0.5;"
         offset="0"
         id="stop2789" />
      <stop
         style="stop-color:#7f7f7f;stop-opacity:0;"
         offset="1"
         id="stop2791" />
    </linearGradient>
    <linearGradient
       id="linearGradient3676">
      <stop
         style="stop-color:#b2b2b2;stop-opacity:0.5;"
         offset="0"
         id="stop3678" />
      <stop
         style="stop-color:#b3b3b3;stop-opacity:0;"
         offset="1"
         id="stop3680" />
    </linearGradient>
    <linearGradient
       id="linearGradient3236">
      <stop
         style="stop-color:#f4f4f4;stop-opacity:1"
         offset="0"
         id="stop3244" />
      <stop
         style="stop-color:white;stop-opacity:1"
         offset="1"
         id="stop3240" />
    </linearGradient>
    <linearGradient
       id="linearGradient4671">
      <stop
         style="stop-color:#ffd43b;stop-opacity:1;"
         offset="0"
         id="stop4673" />
      <stop
         style="stop-color:#ffe873;stop-opacity:1"
         offset="1"
         id="stop4675" />
    </linearGradient>
    <linearGradient
       id="linearGradient4689">
      <stop
         style="stop-color:#4abf00;stop-opacity:1;"
         offset="0"
         id="stop4691" />
      <stop
         style="stop-color:#309600;stop-opacity:1;"
         offset="1"
         id="stop4693" />
    </linearGradient>
    <linearGradient
       x1="224.23996"
       y1="144.75717"
       x2="-65.308502"
       y2="144.75717"
       id="linearGradient2987"
       xlink:href="#linearGradient4671"
       gradientUnits="userSpaceOnUse"
       gradientTransform="translate(100.2702,99.61116)" />
    <linearGradient
       x1="172.94208"
       y1="77.475983"
       x2="26.670298"
       y2="76.313133"
       id="linearGradient2990"
       xlink:href="#linearGradient4689"
       gradientUnits="userSpaceOnUse"
       gradientTransform="translate(100.2702,99.61116)" />
    <linearGradient
       inkscape:collect="always"
       xlink:href="#linearGradient4671"
       id="linearGradient2255"
       gradientUnits="userSpaceOnUse"
       gradientTransform="matrix(0.562541,0,0,0.567972,-11.5974,-7.60954)"
       x1="224.23996"
       y1="144.75717"
       x2="-65.308502"
       y2="144.75717" />
    <linearGradient
       inkscape:collect="always"
       xlink:href="#linearGradient4689"
       id="linearGradient2258"
       gradientUnits="userSpaceOnUse"
       gradientTransform="matrix(0.562541,0,0,0.567972,-11.5974,-7.60954)"
       x1="172.94208"
       y1="76.176224"
       x2="26.670298"
       y2="76.313133" />
    <radialGradient
       inkscape:collect="always"
       xlink:href="#linearGradient2795"
       id="radialGradient2801"
       cx="61.518883"
       cy="132.28575"
       fx="61.518883"
       fy="132.28575"
       r="29.036913"
       gradientTransform="matrix(1,0,0,0.177966,0,108.7434)"
       gradientUnits="userSpaceOnUse" />
    <radialGradient
       inkscape:collect="always"
       xlink:href="#linearGradient2795"
       id="radialGradient1480"
       gradientUnits="userSpaceOnUse"
       gradientTransform="matrix(2.382716e-8,-0.296405,1.43676,4.683673e-7,-128.544,150.5202)"
       cx="61.518883"
       cy="132.28575"
       fx="61.518883"
       fy="132.28575"
       r="29.036913" />
    <linearGradient
       id="linearGradient4125">
      <stop
         style="stop-color:#000080;stop-opacity:0.28456914;"
         offset="0"
         id="stop4127" />
      <stop
         style="stop-color:#000080;stop-opacity:0;"
         offset="1"
         id="stop4129" />
    </linearGradient>
    <inkscape:perspective
       sodipodi:type="inkscape:persp3d"
       inkscape:vp_x="0 : 526.18111 : 1"
       inkscape:vp_y="0 : 1000 : 0"
       inkscape:vp_z="744.09446 : 526.18111 : 1"
       inkscape:persp3d-origin="372.04722 : 350.7874 : 1"
       id="perspective3015" />
    <linearGradient
       id="linearGradient8426"
       inkscape:collect="always">
      <stop
         id="stop8428"
         offset="0"
         style="stop-color:#449fe8;stop-opacity:1" />
      <stop
         id="stop8430"
         offset="1"
         style="stop-color:#c5dff3;stop-opacity:0.3137255" />
    </linearGradient>
    <clipPath
       id="clipPath3055-6"
       clipPathUnits="userSpaceOnUse">
      <path
         id="path3057-3"
         d="M 0,0 487,0 487,172 0,172 0,0 Z"
         inkscape:connector-curvature="0" />
    </clipPath>
    <linearGradient
       x1="224.23996"
       y1="144.75717"
       x2="-65.308502"
       y2="144.75717"
       id="linearGradient5337"
       xlink:href="#linearGradient4671"
       gradientUnits="userSpaceOnUse"
       gradientTransform="translate(100.2702,99.61116)" />
    <linearGradient
       x1="172.94208"
       y1="77.475983"
       x2="26.670298"
       y2="76.313133"
       id="linearGradient5339"
       xlink:href="#linearGradient4689"
       gradientUnits="userSpaceOnUse"
       gradientTransform="translate(100.2702,99.61116)" />
    <linearGradient
       inkscape:collect="always"
       xlink:href="#linearGradient4671"
       id="linearGradient5341"
       gradientUnits="userSpaceOnUse"
       gradientTransform="matrix(0.562541,0,0,0.567972,-11.5974,-7.60954)"
       x1="224.23996"
       y1="144.75717"
       x2="-65.308502"
       y2="144.75717" />
    <linearGradient
       inkscape:collect="always"
       xlink:href="#linearGradient4689"
       id="linearGradient5343"
       gradientUnits="userSpaceOnUse"
       gradientTransform="matrix(0.562541,0,0,0.567972,-11.5974,-7.60954)"
       x1="172.94208"
       y1="76.176224"
       x2="26.670298"
       y2="76.313133" />
    <radialGradient
       inkscape:collect="always"
       xlink:href="#linearGradient2795"
       id="radialGradient2801-4"
       cx="61.518883"
       cy="132.28575"
       fx="61.518883"
       fy="132.28575"
       r="29.036913"
       gradientTransform="matrix(1,0,0,0.177966,0,108.7434)"
       gradientUnits="userSpaceOnUse" />
    <radialGradient
       inkscape:collect="always"
       xlink:href="#linearGradient2795"
       id="radialGradient1480-2"
       gradientUnits="userSpaceOnUse"
       gradientTransform="matrix(2.382716e-8,-0.296405,1.43676,4.683673e-7,-128.544,150.5202)"
       cx="61.518883"
       cy="132.28575"
       fx="61.518883"
       fy="132.28575"
       r="29.036913" />
    <inkscape:perspective
       sodipodi:type="inkscape:persp3d"
       inkscape:vp_x="0 : 526.1811 : 1"
       inkscape:vp_y="0 : 1000 : 0"
       inkscape:vp_z="744.0945 : 526.1811 : 1"
       inkscape:persp3d-origin="372.04725 : 350.7874 : 1"
       id="perspective3015-3" />
    <linearGradient
       y2="348.45154"
       x2="235.74745"
       y1="58.501038"
       x1="247.54834"
       gradientTransform="matrix(2.5458465,0,0,0.8368992,-1088.604,-267.49428)"
       gradientUnits="userSpaceOnUse"
       id="linearGradient4241"
       xlink:href="#linearGradient8426"
       inkscape:collect="always" />
  </defs>
  <sodipodi:namedview
     id="base"
     pagecolor="#ffffff"
     bordercolor="#666666"
     borderopacity="1.0"
     inkscape:pageopacity="0.0"
     inkscape:pageshadow="2"
     inkscape:zoom="4.525"
     inkscape:cx="75.72802"
     inkscape:cy="232.19034"
     inkscape:document-units="px"
     inkscape:current-layer="layer1"
     showgrid="false"
     fit-margin-top="0"
     fit-margin-left="0"
     fit-margin-right="0"
     fit-margin-bottom="0"
     borderlayer="true"
     inkscape:window-width="1440"
     inkscape:window-height="801"
     inkscape:window-x="0"
     inkscape:window-y="1"
     inkscape:window-maximized="1" />
  <metadata
     id="metadata7095">
    <rdf:RDF>
      <cc:Work
         rdf:about="">
        <dc:format>image/svg+xml</dc:format>
        <dc:type
           rdf:resource="http://purl.org/dc/dcmitype/StillImage" />
        <dc:title></dc:title>
      </cc:Work>
    </rdf:RDF>
  </metadata>
  <g
     inkscape:label="Layer 1"
     inkscape:groupmode="layer"
     id="layer1"
     transform="translate(619.31519,261.86623)">
    <rect
       inkscape:export-ydpi="294.04999"
       inkscape:export-xdpi="294.04999"
       inkscape:export-filename="/Users/chrisjrn/Desktop/twitter-cover.png"
       y="-262.05353"
       x="-620.38678"
       height="287.05975"
       width="144.04587"
       id="rect4233"
       style="color:#000000;display:inline;overflow:visible;visibility:visible;opacity:1;fill:url(#linearGradient4241);fill-opacity:1;fill-rule:nonzero;stroke:#666666;stroke-width:0;stroke-linecap:butt;stroke-linejoin:miter;stroke-miterlimit:4;stroke-dasharray:none;stroke-dashoffset:0;stroke-opacity:1;marker:none;enable-background:accumulate" />
    <path
       inkscape:export-ydpi="187.72"
       inkscape:export-xdpi="187.72"
       inkscape:export-filename="/Users/chrisjrn/Desktop/nbp-logo-2"
       style="fill:#ffffff;fill-opacity:1;stroke:#b3b3b3;stroke-width:1;stroke-miterlimit:4;stroke-dasharray:none"
       d="m -617.0673,-184.40891 c -0.25719,-0.023 -0.9257,-0.12486 -1.16172,-0.17702 -1.00602,-0.22235 -2.04984,-0.67975 -2.80866,-1.23076 l -0.18454,-0.134 -0.19041,0.0959 c -0.4653,0.23431 -0.8614,0.32357 -1.43593,0.32357 -0.4646,0 -0.65308,-0.0288 -1.04159,-0.15923 -0.29295,-0.0983 -0.65479,-0.28724 -0.888,-0.46356 -0.11138,-0.0842 -0.22095,-0.14747 -0.24351,-0.14056 -0.0226,0.007 -0.18047,0.0628 -0.35094,0.12421 -0.17046,0.0614 -0.46567,0.14444 -0.65602,0.18451 -0.3089,0.065 -0.4078,0.0731 -0.92012,0.0748 -0.60182,0.002 -0.75986,-0.0154 -1.25715,-0.13929 -0.72399,-0.18034 -1.34787,-0.52242 -1.83426,-1.00574 -0.37971,-0.37732 -0.62612,-0.78914 -0.75299,-1.25843 -0.0839,-0.31047 -0.084,-0.86478 -5e-5,-1.17538 0.28835,-1.06735 1.32837,-1.9645 2.63054,-2.26917 l 0.20749,-0.0485 -0.0128,-0.26656 c -0.0226,-0.47057 0.12272,-0.79144 0.53201,-1.17423 0.256,-0.23943 0.5503,-0.42102 0.9278,-0.57247 0.2779,-0.11149 0.89088,-0.2749 1.03118,-0.2749 0.0908,0 0.0926,0.0286 -0.025,-0.39636 -0.0696,-0.25126 -0.0759,-0.31418 -0.0778,-0.77903 -10e-4,-0.33471 0.0102,-0.55652 0.0343,-0.65603 0.16716,-0.69004 0.44878,-1.20809 0.90662,-1.66774 0.45175,-0.45354 1.00587,-0.74934 1.66741,-0.8901 0.28446,-0.0605 0.87839,-0.0678 1.17539,-0.0145 0.43316,0.0778 0.91902,0.27524 1.28839,0.52342 0.38388,0.25794 0.88053,0.82958 1.06779,1.22903 0.0346,0.0738 0.0709,0.13472 0.0806,0.13534 0.01,5.2e-4 0.0974,-0.0472 0.19471,-0.10641 0.32559,-0.1978 0.76722,-0.35088 1.19107,-0.41285 0.1504,-0.022 0.22292,-0.0444 0.22292,-0.0688 0,-0.0199 0.058,-0.15074 0.12908,-0.2907 0.10924,-0.2154 0.17328,-0.2989 0.41685,-0.54349 0.4939,-0.49598 1.03522,-0.78639 1.82539,-0.97929 0.47449,-0.11584 0.78555,-0.15125 1.31885,-0.15015 1.82588,0.004 3.35806,0.8615 3.68135,2.06079 0.0654,0.24253 0.0608,0.66436 -0.01,0.90281 l -0.0528,0.17843 0.34316,-0.11572 c 0.89648,-0.30231 1.89577,-0.35828 2.85984,-0.1602 1.25739,0.25837 2.19726,0.94648 2.3884,1.74868 0.0392,0.16429 0.0403,0.51373 0.002,0.64396 -0.0439,0.15004 -0.0392,0.15588 0.14285,0.17608 0.47806,0.053 1.12171,0.24168 1.60506,0.47037 0.87442,0.41372 1.55004,1.05133 1.90069,1.79379 0.54021,1.14381 0.2704,2.40281 -0.72025,3.36091 -0.56101,0.54258 -1.27378,0.93019 -2.10427,1.14433 -0.17536,0.0452 -0.32569,0.0909 -0.33408,0.10144 -0.63403,0.80003 -1.19834,1.25719 -2.08449,1.68867 -1.25064,0.60895 -2.83687,0.80455 -4.27894,0.52765 -0.54411,-0.10448 -1.23427,-0.33612 -1.69617,-0.56929 l -0.17466,-0.0882 -0.29229,0.13879 c -0.71274,0.33845 -1.43494,0.55309 -2.31024,0.68662 -0.29451,0.0449 -0.54012,0.0604 -1.06605,0.0669 -0.37585,0.005 -0.73871,0.004 -0.80637,-0.002 z"
       id="path4239"
       inkscape:connector-curvature="0"
       sodipodi:nodetypes="csscssssssssssssscsssssssssssscssssssssscssscssssscssscssscc" />
    <path
       inkscape:export-ydpi="187.72"
       inkscape:export-xdpi="187.72"
       inkscape:export-filename="/Users/chrisjrn/Desktop/nbp-logo-2"
       sodipodi:nodetypes="csscssssssssssssscsssssssssssscssssssssscssscssssscssscssscc"
       inkscape:connector-curvature="0"
       id="path4285"
       d="m -490.98249,-49.31924 c -0.4321,-0.0387 -1.55531,-0.20979 -1.95186,-0.29742 -1.69027,-0.37358 -3.44406,-1.14208 -4.71898,-2.06786 l -0.31006,-0.22514 -0.31992,0.16112 c -0.78177,0.39368 -1.44728,0.54365 -2.41258,0.54365 -0.78061,0 -1.09728,-0.0484 -1.75005,-0.26753 -0.49219,-0.16523 -1.10015,-0.4826 -1.49197,-0.77887 -0.18713,-0.14149 -0.37122,-0.24776 -0.40913,-0.23615 -0.0379,0.0116 -0.30323,0.10541 -0.58963,0.2087 -0.28641,0.10321 -0.78241,0.24266 -1.10222,0.30999 -0.519,0.10927 -0.68517,0.12269 -1.54595,0.12578 -1.01114,0.004 -1.2767,-0.0259 -2.11221,-0.23402 -1.21642,-0.30298 -2.26463,-0.87773 -3.08184,-1.6898 -0.63796,-0.63394 -1.05199,-1.32587 -1.26515,-2.11435 -0.14103,-0.52164 -0.14104,-1.45297 -6e-5,-1.97483 0.48446,-1.79331 2.23185,-3.30066 4.4197,-3.81255 l 0.34861,-0.0815 -0.0216,-0.44785 c -0.0381,-0.79065 0.20617,-1.32975 0.89383,-1.97291 0.43014,-0.40227 0.92461,-0.70737 1.55888,-0.96183 0.4669,-0.18731 1.49681,-0.46188 1.73253,-0.46188 0.15261,0 0.15565,0.048 -0.0421,-0.66593 -0.11688,-0.42217 -0.12746,-0.52788 -0.13076,-1.3089 -0.002,-0.56236 0.0171,-0.93504 0.0575,-1.10224 0.28087,-1.15938 0.75404,-2.02977 1.52327,-2.80206 0.75902,-0.76201 1.69002,-1.25901 2.80151,-1.4955 0.47793,-0.10166 1.47583,-0.11391 1.97484,-0.0242 0.72778,0.13081 1.54409,0.46245 2.1647,0.87944 0.64497,0.43338 1.47942,1.39382 1.79404,2.06495 0.058,0.12398 0.11908,0.22636 0.13549,0.22739 0.0164,7.8e-4 0.16357,-0.0794 0.32714,-0.17877 0.54704,-0.33234 1.28903,-0.58954 2.00118,-0.69366 0.25269,-0.0369 0.37454,-0.0746 0.37454,-0.1156 0,-0.0335 0.0975,-0.25326 0.21686,-0.48843 0.18355,-0.36189 0.29115,-0.50219 0.70038,-0.91313 0.82984,-0.83332 1.73934,-1.32126 3.06695,-1.64537 0.7972,-0.19463 1.31984,-0.25412 2.21586,-0.25227 3.06777,0.006 5.64207,1.44746 6.18524,3.46245 0.10992,0.40748 0.10218,1.11623 -0.0162,1.51685 l -0.0888,0.2998 0.57655,-0.19442 c 1.50623,-0.50793 3.18519,-0.60197 4.80497,-0.26916 2.11263,0.4341 3.69175,1.59023 4.0129,2.93805 0.0658,0.27604 0.0676,0.86313 0.004,1.08196 -0.0738,0.25209 -0.0659,0.26189 0.24002,0.29584 0.80321,0.0891 1.88465,0.40606 2.69674,0.79029 1.46916,0.6951 2.60431,1.76639 3.19346,3.01384 0.90763,1.92178 0.45431,4.03711 -1.21013,5.64686 -0.9426,0.91162 -2.14016,1.56286 -3.53549,1.92265 -0.29464,0.076 -0.54723,0.15266 -0.56131,0.17044 -1.06529,1.34417 -2.01342,2.11227 -3.50228,2.83722 -2.10125,1.02313 -4.76637,1.35177 -7.18928,0.88653 -0.91419,-0.17554 -2.07376,-0.56471 -2.84984,-0.95648 l -0.29346,-0.14814 -0.49109,0.2332 c -1.19751,0.56865 -2.41092,0.92927 -3.88155,1.15363 -0.49484,0.0755 -0.90751,0.10139 -1.79114,0.11236 -0.63148,0.008 -1.24115,0.006 -1.35482,-0.004 z"
       style="fill:#ffffff;fill-opacity:1;stroke:#b3b3b3;stroke-width:1;stroke-miterlimit:4;stroke-dasharray:none" />
    <path
       inkscape:export-ydpi="187.72"
       inkscape:export-xdpi="187.72"
       inkscape:export-filename="/Users/chrisjrn/Desktop/nbp-logo-2"
       style="color:#000000;display:inline;overflow:visible;visibility:visible;opacity:1;fill:#ffffff;fill-opacity:1;fill-rule:nonzero;stroke:#b3b3b3;stroke-width:1;stroke-linecap:butt;stroke-linejoin:miter;stroke-miterlimit:4;stroke-dasharray:none;stroke-dashoffset:0;stroke-opacity:1;marker:none;enable-background:accumulate"
       d="m -571.53972,-115.58187 c -2.16601,0 -3.9524,1.73997 -4.08731,3.9812 l -0.025,0.41778 -0.28002,-0.0214 c -0.36007,-0.0274 -0.85585,0.0782 -1.25272,0.26646 -0.38517,0.18276 -0.98249,0.76343 -1.17978,1.14693 l -0.13262,0.25801 -0.34604,-0.17694 c -0.73937,-0.37773 -1.46336,-0.54949 -2.31553,-0.54919 -0.60509,1.6e-4 -1.06088,0.0724 -1.59786,0.25259 -1.46159,0.49065 -2.59387,1.65205 -3.0058,3.08358 l -0.10882,0.37798 -0.32885,0 c -1.56942,0 -3.1023,0.90718 -3.53178,2.09037 -0.32521,0.89594 -0.10096,1.73263 0.66855,2.49549 0.33738,0.33448 0.47117,0.43082 0.87624,0.63089 0.70403,0.34773 1.23234,0.47149 2.04819,0.47956 l 0.65408,0.006 0.33066,0.32373 c 0.4583,0.44877 1.12116,0.752654 1.64156,0.752654 0.15832,0 0.17868,0.017 0.3171,0.26345 0.2319,0.41281 0.73886,0.88179 1.19424,1.10502 0.52858,0.25911 0.88249,0.34303 1.4607,0.34604 0.58321,0.003 0.9995,-0.0931 1.48994,-0.34392 l 0.34694,-0.17755 0.14317,0.1706 c 0.89249,1.06392 2.19008,1.7625 3.58544,1.93002 1.34959,0.16203 2.87257,-0.26376 3.95349,-1.10501 l 0.28876,-0.22487 0.44309,0.1899 c 0.87853,0.37683 1.70696,0.53033 2.63867,0.48861 1.50957,-0.0676 2.7902,-0.61448 3.86244,-1.6497 0.32663,-0.31534 0.73145,-0.77895 0.81838,-0.93712 0.004,-0.007 0.12823,0.059 0.2764,0.14679 0.31643,0.18754 0.97041,0.41403 1.39168,0.48197 1.19512,0.19278 2.52992,-0.22123 3.3883,-1.050764 0.16946,-0.16375 0.34815,-0.35187 0.39728,-0.41808 l 0.0895,-0.12026 0.40994,0.14107 c 0.36935,0.12721 0.46463,0.1412 0.95974,0.14106 0.48216,-1.4e-4 0.59466,-0.0156 0.91572,-0.1272 0.88619,-0.30783 1.52031,-0.92621 1.81397,-1.76936 0.15249,-0.43769 0.15165,-1.13316 -0.002,-1.60086 -0.21923,-0.66946 -0.7543,-1.2915 -1.38564,-1.6102 -0.36502,-0.18426 -0.89605,-0.31621 -1.27293,-0.31621 l -0.30534,0 -0.11936,-0.48227 c -0.57575,-2.32692 -2.99062,-3.96325 -5.85151,-3.96494 -0.75758,-4.4e-4 -1.15259,0.0463 -1.82301,0.21582 -0.25954,0.0656 -0.47669,0.11197 -0.48258,0.10279 -0.006,-0.009 -0.092,-0.18156 -0.1914,-0.38311 -0.1374,-0.27861 -0.26903,-0.45437 -0.5483,-0.73337 -0.54882,-0.54829 -1.1282,-0.80118 -1.83657,-0.80118 l -0.32826,0 -0.0305,-0.22938 c -0.0816,-0.61537 -0.4365,-1.40829 -0.87593,-1.95685 -0.79638,-0.99412 -1.91271,-1.53726 -3.15923,-1.53726 z"
       id="path4287"
       inkscape:connector-curvature="0"
       sodipodi:nodetypes="scccsccccsccsssscccsssscccscccsscsssccccsccssccsscsssccss" />
    <path
       style="fill:#ffffff;fill-opacity:1;stroke:#b3b3b3;stroke-width:1;stroke-miterlimit:4;stroke-dasharray:none"
       d="m -604.47656,-81.943596 c -0.53474,-0.0479 -1.92474,-0.25962 -2.41549,-0.36807 -2.09175,-0.46231 -4.26211,-1.41335 -5.83986,-2.55903 l -0.38371,-0.27862 -0.39591,0.19939 c -0.96746,0.4872 -1.79105,0.67279 -2.98563,0.67279 -0.96603,0 -1.35792,-0.0599 -2.16573,-0.33108 -0.6091,-0.20448 -1.36147,-0.59723 -1.84636,-0.96387 -0.23158,-0.1751 -0.4594,-0.30661 -0.50631,-0.29224 -0.0469,0.0144 -0.37526,0.13044 -0.72968,0.25827 -0.35444,0.12772 -0.96825,0.3003 -1.36403,0.38362 -0.64228,0.13522 -0.84792,0.15183 -1.91315,0.15566 -1.25132,0.005 -1.57995,-0.0321 -2.61392,-0.28961 -1.50536,-0.37495 -2.80254,-1.08622 -3.81386,-2.09117 -0.7895,-0.78452 -1.30187,-1.6408 -1.56566,-2.61657 -0.17453,-0.64554 -0.17454,-1.79809 -8e-5,-2.4439 0.59954,-2.21928 2.76198,-4.08466 5.4695,-4.71814 l 0.43142,-0.1009 -0.0267,-0.55422 c -0.0471,-0.97845 0.25515,-1.64561 1.10615,-2.441534 0.53231,-0.49782 1.14423,-0.87539 1.92915,-1.19029 0.5778,-0.23181 1.85234,-0.57159 2.14405,-0.57159 0.18886,0 0.19262,0.0594 -0.0521,-0.82411 -0.14464,-0.52244 -0.15773,-0.65326 -0.16182,-1.6198 -0.003,-0.69593 0.0212,-1.15714 0.0712,-1.36405 0.34758,-1.43476 0.93314,-2.5119 1.88509,-3.46763 0.9393,-0.943 2.09144,-1.55805 3.46694,-1.85072 0.59146,-0.12581 1.82638,-0.14097 2.44392,-0.03 0.90065,0.16189 1.91085,0.5723 2.67888,1.08834 0.79817,0.53631 1.83082,1.72489 2.22017,2.55543 0.0718,0.15343 0.14736,0.28013 0.16767,0.2814 0.0203,9.6e-4 0.20243,-0.0982 0.40485,-0.22124 0.67697,-0.41127 1.59521,-0.72957 2.47651,-0.85842 0.31271,-0.0457 0.46351,-0.0923 0.46351,-0.14305 0,-0.0415 0.1207,-0.31342 0.26837,-0.60445 0.22714,-0.44785 0.3603,-0.62147 0.86674,-1.13002 1.02694,-1.03126 2.15247,-1.6351 3.79543,-2.03619 0.98655,-0.24086 1.63334,-0.31449 2.74219,-0.31219 3.79645,0.008 6.98221,1.79127 7.6544,4.28487 0.13603,0.50427 0.12645,1.38136 -0.0201,1.87715 l -0.10984,0.37101 0.71349,-0.24061 c 1.86401,-0.62857 3.94177,-0.74495 5.94629,-0.33309 2.61443,0.53721 4.56864,1.96796 4.96607,3.63592 0.0814,0.3416 0.0837,1.06815 0.005,1.33895 -0.0913,0.31197 -0.0816,0.3241 0.29703,0.36611 0.994,0.11032 2.3323,0.50251 3.33729,0.97801 1.81813,0.860214 3.2229,2.185964 3.95199,3.729714 1.12322,2.37825 0.56223,4.99603 -1.49756,6.98814 -1.1665,1.12815 -2.64851,1.93408 -4.37527,2.37933 -0.36463,0.094 -0.67721,0.18893 -0.69464,0.21093 -1.31832,1.66345 -2.49166,2.61399 -4.33416,3.51113 -2.60036,1.26615 -5.89852,1.67286 -8.89694,1.09711 -1.13133,-0.21723 -2.56633,-0.69885 -3.52675,-1.18367 l -0.36316,-0.18333 -0.60774,0.28859 c -1.48195,0.70372 -2.98358,1.15 -4.80353,1.42765 -0.61237,0.0934 -1.12306,0.12548 -2.21658,0.13905 -0.78147,0.01 -1.53596,0.008 -1.67663,-0.005 z"
       id="path4245"
       inkscape:connector-curvature="0"
       sodipodi:nodetypes="csscssssssssssssscsssssssssssscssssssssscssscssssscssscssscc"
       inkscape:export-filename="/Users/chrisjrn/Desktop/nbp-logo-2"
       inkscape:export-xdpi="187.72"
       inkscape:export-ydpi="187.72" />
    <path
       sodipodi:nodetypes="csscssssssssssssscsssssssssssscssssssssscssscssssscssscssscc"
       inkscape:connector-curvature="0"
       id="path4247"
       d="m -539.01304,-125.08812 c -0.20113,-0.018 -0.72392,-0.0976 -0.90849,-0.13844 -0.78673,-0.17388 -1.60302,-0.53158 -2.19643,-0.96248 l -0.14432,-0.10479 -0.1489,0.075 c -0.36388,0.18324 -0.67364,0.25304 -1.12293,0.25304 -0.36333,0 -0.51072,-0.0225 -0.81455,-0.12452 -0.22909,-0.0769 -0.51206,-0.22463 -0.69443,-0.36252 -0.0871,-0.0659 -0.17279,-0.11532 -0.19043,-0.10992 -0.0177,0.006 -0.14113,0.0491 -0.27445,0.0971 -0.1333,0.048 -0.36416,0.11296 -0.51302,0.14429 -0.24156,0.0508 -0.31891,0.0572 -0.71955,0.0585 -0.47064,0.002 -0.59423,-0.012 -0.98312,-0.10892 -0.56618,-0.14103 -1.05407,-0.40855 -1.43443,-0.78652 -0.29694,-0.29507 -0.48964,-0.61712 -0.58886,-0.98411 -0.0656,-0.24279 -0.0657,-0.67628 -4e-5,-0.91917 0.2255,-0.8347 1.03882,-1.53629 2.05714,-1.77454 l 0.16227,-0.0379 -0.01,-0.20846 c -0.0177,-0.368 0.096,-0.61892 0.41604,-0.91827 0.2002,-0.18724 0.43035,-0.32925 0.72556,-0.44769 0.21732,-0.0872 0.69669,-0.21498 0.8064,-0.21498 0.071,0 0.0724,0.0224 -0.0195,-0.30996 -0.0544,-0.19649 -0.0593,-0.24569 -0.0608,-0.60922 -7.8e-4,-0.26175 0.008,-0.43521 0.0268,-0.51303 0.13072,-0.53962 0.35095,-0.94475 0.70899,-1.30421 0.35328,-0.35467 0.78661,-0.586 1.30395,-0.69607 0.22246,-0.0473 0.68692,-0.053 0.91918,-0.0113 0.33874,0.0608 0.7187,0.21524 1.00755,0.40932 0.30021,0.20172 0.6886,0.64875 0.83504,0.96113 0.0271,0.0577 0.0554,0.10535 0.063,0.10584 0.008,4.1e-4 0.0762,-0.0369 0.15227,-0.0832 0.25462,-0.15468 0.59998,-0.2744 0.93144,-0.32286 0.11762,-0.0172 0.17433,-0.0347 0.17433,-0.0538 0,-0.0156 0.0454,-0.11788 0.10094,-0.22733 0.0854,-0.16845 0.13551,-0.23375 0.32599,-0.42502 0.38624,-0.38787 0.80956,-0.61498 1.42749,-0.76583 0.37106,-0.0906 0.61432,-0.11828 1.03137,-0.11742 1.42788,0.003 2.62608,0.67371 2.8789,1.61158 0.0511,0.18967 0.0476,0.51955 -0.008,0.70602 l -0.0413,0.13954 0.26836,-0.0905 c 0.70106,-0.23642 1.48253,-0.28019 2.23645,-0.12528 0.98331,0.20205 1.71831,0.74016 1.86778,1.3675 0.0307,0.12848 0.0315,0.40175 0.002,0.50359 -0.0343,0.11734 -0.0307,0.12191 0.11171,0.1377 0.37385,0.0414 0.8772,0.189 1.25519,0.36784 0.68382,0.32354 1.21217,0.82217 1.48638,1.40279 0.42246,0.89448 0.21146,1.87905 -0.56325,2.6283 -0.43872,0.42431 -0.99612,0.72743 -1.64558,0.89489 -0.13714,0.0354 -0.2547,0.0711 -0.26126,0.0793 -0.49583,0.62564 -0.93713,0.98315 -1.63012,1.32057 -0.97803,0.47622 -2.21849,0.62918 -3.34622,0.41264 -0.42551,-0.0817 -0.96523,-0.26285 -1.32644,-0.4452 l -0.13659,-0.069 -0.22858,0.10854 c -0.55738,0.26467 -1.12215,0.43253 -1.80666,0.53695 -0.23031,0.0351 -0.42238,0.0472 -0.83367,0.0523 -0.29393,0.004 -0.57769,0.003 -0.6306,-0.002 z"
       style="fill:#ffffff;fill-opacity:1;stroke:#b3b3b3;stroke-width:1;stroke-miterlimit:4;stroke-dasharray:none"
       inkscape:export-filename="/Users/chrisjrn/Desktop/nbp-logo-2"
       inkscape:export-xdpi="187.72"
       inkscape:export-ydpi="187.72" />
    <path
       inkscape:export-ydpi="187.72"
       inkscape:export-xdpi="187.72"
       inkscape:export-filename="/Users/chrisjrn/Desktop/nbp-logo-2"
       sodipodi:nodetypes="csscssssssssssssscsssssssssssscssssssssscssscssssscssscssscc"
       inkscape:connector-curvature="0"
       id="path4269"
       d="m -480.82236,-171.07552 c -0.4768,-0.0426 -1.71621,-0.2315 -2.15379,-0.32819 -1.86514,-0.41223 -3.80037,-1.26024 -5.20718,-2.2818 l -0.34215,-0.24843 -0.35301,0.17779 c -0.86265,0.43442 -1.59702,0.59991 -2.66218,0.59991 -0.86137,0 -1.21081,-0.0533 -1.9311,-0.29521 -0.54311,-0.18232 -1.21398,-0.53253 -1.64633,-0.85945 -0.20649,-0.15604 -0.40962,-0.27339 -0.45146,-0.26058 -0.0419,0.0125 -0.33461,0.11627 -0.65063,0.2303 -0.31604,0.11395 -0.86334,0.26776 -1.21625,0.34206 -0.57269,0.12055 -0.75605,0.13535 -1.70589,0.13874 -1.11575,0.004 -1.40877,-0.0287 -2.33073,-0.25824 -1.34228,-0.33432 -2.49892,-0.96855 -3.40068,-1.86461 -0.70397,-0.69953 -1.16082,-1.46304 -1.39604,-2.33311 -0.15568,-0.5756 -0.15568,-1.60328 -7e-5,-2.17913 0.53459,-1.97885 2.46275,-3.64214 4.87695,-4.20699 l 0.38468,-0.0899 -0.0237,-0.49418 c -0.0421,-0.87244 0.22752,-1.46732 0.98632,-2.17701 0.47463,-0.44389 1.02026,-0.78056 1.72014,-1.06135 0.51521,-0.20668 1.65167,-0.50965 1.91178,-0.50965 0.16835,0 0.17174,0.053 -0.0464,-0.73484 -0.12894,-0.46584 -0.14071,-0.58249 -0.14428,-1.44431 -0.002,-0.62053 0.0189,-1.03178 0.0635,-1.21627 0.30992,-1.27932 0.83205,-2.23976 1.68086,-3.09196 0.83753,-0.84084 1.86485,-1.38925 3.09134,-1.65022 0.52738,-0.11217 1.62851,-0.12572 2.17915,-0.0268 0.80308,0.14427 1.70384,0.5103 2.38865,0.97043 0.71171,0.47822 1.63248,1.53803 1.97966,2.27859 0.064,0.13678 0.13143,0.24978 0.14944,0.25092 0.018,8.5e-4 0.18051,-0.0876 0.361,-0.19728 0.60362,-0.36672 1.42238,-0.65053 2.2082,-0.76542 0.27884,-0.0408 0.4133,-0.0824 0.4133,-0.1275 0,-0.0371 0.10754,-0.27947 0.23929,-0.53898 0.20253,-0.39932 0.32126,-0.55413 0.77284,-1.00759 0.91568,-0.91954 1.91928,-1.45796 3.38425,-1.81559 0.87966,-0.21477 1.45639,-0.28043 2.4451,-0.27838 3.38516,0.007 6.22578,1.59722 6.82514,3.82067 0.12127,0.44963 0.11271,1.23171 -0.018,1.67378 l -0.0979,0.33082 0.6362,-0.21455 c 1.66206,-0.56047 3.51472,-0.66424 5.30208,-0.297 2.3312,0.479 4.07368,1.75476 4.42807,3.24202 0.0726,0.30459 0.0747,0.95242 0.005,1.19388 -0.0815,0.27818 -0.0728,0.28899 0.26484,0.32645 0.88631,0.0984 2.07962,0.44806 2.97574,0.87205 1.62115,0.76703 2.87374,1.94914 3.52384,3.32565 1.00153,2.12059 0.50132,4.45477 -1.33532,6.23106 -1.04013,1.00592 -2.36157,1.72455 -3.90126,2.12155 -0.32513,0.0838 -0.60385,0.16853 -0.61938,0.18809 -1.1755,1.48323 -2.22172,2.33079 -3.86461,3.13074 -2.31864,1.12898 -5.25949,1.49162 -7.93307,0.97826 -1.00877,-0.19371 -2.28831,-0.62315 -3.14468,-1.05545 l -0.32381,-0.16353 -0.5419,0.25734 c -1.32139,0.62748 -2.66035,1.02541 -4.28312,1.27297 -0.54604,0.0833 -1.00139,0.11181 -1.97644,0.12394 -0.69682,0.009 -1.36956,0.007 -1.495,-0.004 z"
       style="fill:#ffffff;fill-opacity:1;stroke:#b3b3b3;stroke-width:1;stroke-miterlimit:4;stroke-dasharray:none" />
    <path
       inkscape:export-ydpi="187.72"
       inkscape:export-xdpi="187.72"
       inkscape:export-filename="/Users/chrisjrn/Desktop/nbp-logo-2"
       style="color:#000000;display:inline;overflow:visible;visibility:visible;opacity:1;fill:#ffffff;fill-opacity:1;fill-rule:nonzero;stroke:#b3b3b3;stroke-width:1;stroke-linecap:butt;stroke-linejoin:miter;stroke-miterlimit:4;stroke-dasharray:none;stroke-dashoffset:0;stroke-opacity:1;marker:none;enable-background:accumulate"
       d="m -483.92747,-306.95677 c -9.28266,0 -16.93843,7.45681 -17.51655,17.06182 l -0.10716,1.79041 -1.20005,-0.0917 c -1.5431,-0.11749 -3.66783,0.33492 -5.36866,1.14193 -1.65067,0.78326 -4.21055,3.27174 -5.05604,4.91524 l -0.56837,1.10574 -1.48298,-0.75825 c -3.16862,-1.61885 -6.27134,-2.35494 -9.92342,-2.35365 -2.59315,6.9e-4 -4.54652,0.31004 -6.84777,1.08252 -6.26377,2.10271 -11.11624,7.07999 -12.88163,13.21495 l -0.46633,1.61986 -1.40934,0 c -6.72588,0 -13.29519,3.88781 -15.13577,8.95848 -1.39372,3.83966 -0.43265,7.42535 2.86516,10.69467 1.44586,1.4334 2.01923,1.8463 3.7552,2.70371 3.01717,1.49021 5.28131,2.02062 8.77768,2.0552 l 2.80315,0.0273 1.41706,1.38737 c 1.96412,1.92325 4.80481,3.22556 7.03507,3.22556 0.6785,0 0.76572,0.073 1.35894,1.12901 0.99384,1.76916 3.16642,3.77902 5.11803,4.73569 2.26525,1.11041 3.78197,1.47007 6.25997,1.48298 2.49938,0.0151 4.28341,-0.39904 6.38526,-1.47392 l 1.48685,-0.76087 0.6136,0.73111 c 3.82483,4.55952 9.38576,7.55336 15.3657,8.27129 5.78376,0.69438 12.31068,-1.1304 16.94301,-4.73565 l 1.23754,-0.96369 1.89891,0.81386 c 3.76501,1.61491 7.31534,2.27277 11.30823,2.09395 6.46941,-0.28985 11.95767,-2.63342 16.55288,-7.06992 1.39979,-1.35143 3.13466,-3.33825 3.50719,-4.01615 0.0172,-0.031 0.54959,0.25291 1.18456,0.6291 1.35611,0.8037 4.1588,1.77436 5.96415,2.06555 5.12184,0.82616 10.8422,-0.94809 14.52092,-4.50314 0.72619,-0.70178 1.49197,-1.50794 1.70255,-1.7917 l 0.38366,-0.51542 1.75682,0.60457 c 1.58289,0.5452 1.99125,0.60512 4.11305,0.60454 2.06632,-6e-4 2.54849,-0.0671 3.92441,-0.54513 3.79785,-1.31922 6.51541,-3.96937 7.77393,-7.58275 0.65348,-1.87578 0.64993,-4.85624 -0.006,-6.86063 -0.93956,-2.86904 -3.23263,-5.53488 -5.93832,-6.90068 -1.5643,-0.78965 -3.8401,-1.35512 -5.45523,-1.35512 l -1.30855,0 -0.51154,-2.06682 c -2.46745,-9.97225 -12.81658,-16.98489 -25.0772,-16.9921 -3.24669,-0.002 -4.93951,0.19841 -7.81266,0.92492 -1.11228,0.28135 -2.04289,0.47986 -2.06813,0.44048 -0.0243,-0.0394 -0.39433,-0.77807 -0.82029,-1.64182 -0.58884,-1.19399 -1.15295,-1.94725 -2.34977,-3.14293 -2.35203,-2.34972 -4.83502,-3.43351 -7.87081,-3.43351 l -1.40675,0 -0.13062,-0.98306 c -0.34985,-2.63721 -1.8707,-6.03537 -3.75391,-8.38626 -3.41291,-4.26038 -8.19709,-6.58805 -13.53915,-6.58805 z"
       id="path4277"
       inkscape:connector-curvature="0"
       sodipodi:nodetypes="scccsccccsccsssscccsssscccscccsscsssccccsccssccsscsssccss" />
    <path
       inkscape:export-ydpi="187.72"
       inkscape:export-xdpi="187.72"
       inkscape:export-filename="/Users/chrisjrn/Desktop/nbp-logo-2"
       sodipodi:nodetypes="csscssssssssssssscsssssssssssscssssssssscssscssssscssscssscc"
       inkscape:connector-curvature="0"
       id="path4279"
       d="m -618.36935,74.342914 c -1.6609,-0.14878 -5.97823,-0.80638 -7.5025,-1.14323 -6.49697,-1.43593 -13.23811,-4.38986 -18.13859,-7.94834 l -1.19181,-0.86539 -1.22969,0.6193 c -3.00493,1.51324 -5.563,2.08969 -9.27336,2.08969 -3.00049,0 -4.2177,-0.18605 -6.72675,-1.02834 -1.89187,-0.63511 -4.22873,-1.85499 -5.73479,-2.99378 -0.71929,-0.54386 -1.4269,-0.95233 -1.5726,-0.90769 -0.14567,0.0447 -1.16556,0.40514 -2.26638,0.80218 -1.10089,0.3967 -3.00739,0.93274 -4.23668,1.19153 -1.99492,0.41999 -2.63364,0.47158 -5.94224,0.48348 -3.8866,0.0155 -4.90732,-0.0997 -8.11883,-0.89953 -4.67564,-1.1646 -8.70468,-3.3738 -11.84584,-6.49517 -2.45218,-2.43672 -4.0436,-5.09632 -4.86293,-8.12706 -0.54209,-2.00505 -0.54212,-5.58486 -2.5e-4,-7.59075 1.86217,-6.89308 8.5787,-12.68694 16.98825,-14.65453 l 1.33999,-0.31339 -0.0829,-1.72141 c -0.14629,-3.03906 0.7925,-5.11126 3.4357,-7.58339 1.65335,-1.54622 3.55398,-2.71896 5.99194,-3.69704 1.79464,-0.72 5.75336,-1.77535 6.65941,-1.77535 0.5866,0 0.59828,0.18449 -0.16182,-2.5596895 -0.44925,-1.62269 -0.48991,-2.02902 -0.50262,-5.03109 -0.009,-2.16156 0.0659,-3.59408004 0.22115,-4.23674004 1.07958,-4.45635996 2.89833,-7.80194996 5.85509,-10.77045046 2.91746,-2.92895 6.496,-4.8393 10.7683,-5.74833 1.83708,-0.39076 5.67274,-0.43785 7.59081,-0.0932 2.79742,0.50283 5.9351,1.77756 8.3206,3.38038 2.47911,1.66578 5.68652,5.3575105 6.89584,7.9371605 0.22301,0.47655 0.4577,0.87008 0.52078,0.87403 0.0631,0.003 0.62875,-0.30501 1.25747,-0.68717 2.10266,-1.27741 4.95472,-2.26604 7.69203,-2.66625 0.97128,-0.14195 1.43966,-0.28669 1.43966,-0.44432 0,-0.12889 0.3749,-0.97348 0.83356,-1.8774205 0.7055,-1.39102 1.11909,-1.93028 2.69209,-3.50983 3.18967,-3.2031 6.68557,-5.07862 11.7886,-6.32441 3.06422,-0.74811 5.07315,-0.9768 8.51723,-0.96966 11.79177,0.0248 21.68673,5.56368 23.77455,13.3088005 0.42251,1.56626 0.39275,4.2905 -0.0624,5.83042 l -0.34116,1.15235996 2.2161,-0.74733996 c 5.78961,-1.95233 12.24312,-2.31381 18.46916,-1.03457 8.12041,1.66856996 14.19018,6.11248 15.4246,11.29316 0.25283,1.061 0.25997,3.3176695 0.0155,4.1587695 -0.28358,0.96898 -0.25345,1.00666 0.92258,1.13714 3.08736,0.34265 7.24411,1.56079 10.36561,3.0377 5.64711,2.67181 10.01032,6.78958 12.27487,11.58447 3.48872,7.38683 1.74629,15.51765 -4.65142,21.70514 -3.62314,3.50403 -8.22626,6.00725 -13.58957,7.3902 -1.13254,0.29196 -2.10342,0.58681 -2.15755,0.65514 -4.0947,5.16667 -7.73909,8.11905 -13.4619,10.90556 -8.07671,3.93266 -18.32078,5.1959 -27.63387,3.40763 -3.51391,-0.67472 -7.97101,-2.17063 -10.95408,-3.67648 l -1.12797,-0.56942 -1.88764,0.89636 c -4.60293,2.18575 -9.26699,3.57189 -14.91975,4.43427 -1.90202,0.2901 -3.48822,0.38974 -6.88469,0.43189 -2.42725,0.0311 -4.77069,0.0249 -5.20761,-0.0155 z"
       style="fill:#ffffff;fill-opacity:1;stroke:#b3b3b3;stroke-width:1;stroke-miterlimit:4;stroke-dasharray:none" />
    <path
       style="fill:#ffffff;fill-opacity:1;stroke:#b3b3b3;stroke-width:1;stroke-miterlimit:4;stroke-dasharray:none"
       d="m -529.99053,-162.62668 c -0.45998,-0.0412 -1.65562,-0.22333 -2.07775,-0.3166 -1.79929,-0.39768 -3.6662,-1.21575 -5.02334,-2.20124 l -0.33006,-0.23967 -0.34054,0.17152 c -0.8322,0.41908 -1.54065,0.57873 -2.5682,0.57873 -0.83094,0 -1.16805,-0.0514 -1.8629,-0.28479 -0.52395,-0.17588 -1.17112,-0.51372 -1.58821,-0.82911 -0.1992,-0.15052 -0.39516,-0.26373 -0.43553,-0.25137 -0.0405,0.0119 -0.32278,0.11221 -0.62766,0.22216 -0.30487,0.10998 -0.83285,0.25832 -1.1733,0.32999 -0.55247,0.1163 -0.72935,0.13054 -1.64566,0.13384 -1.07636,0.004 -1.35903,-0.0277 -2.24844,-0.24912 -1.29489,-0.32252 -2.41069,-0.93435 -3.28061,-1.79879 -0.67911,-0.67482 -1.11983,-1.41137 -1.34675,-2.25072 -0.15019,-0.55528 -0.15019,-1.54668 -6e-5,-2.10219 0.5157,-1.90899 2.37579,-3.51355 4.70474,-4.05846 l 0.3711,-0.0868 -0.0229,-0.47674 c -0.0406,-0.84163 0.21949,-1.4155 0.9515,-2.10014 0.45787,-0.42822 0.98424,-0.753 1.65941,-1.02387 0.49702,-0.1994 1.59334,-0.49166 1.84428,-0.49166 0.16239,0 0.16566,0.0512 -0.0447,-0.70889 -0.12435,-0.4494 -0.13575,-0.56192 -0.13919,-1.39332 -0.001,-0.59862 0.0182,-0.99536 0.0613,-1.17332 0.29898,-1.23415 0.80267,-2.1607 1.6215,-2.9828 0.80798,-0.81115 1.79902,-1.3402 2.9822,-1.59196 0.50876,-0.10826 1.57101,-0.12132 2.10221,-0.0258 0.77473,0.13918 1.64368,0.49228 2.30432,0.93617 0.68658,0.46133 1.57484,1.48373 1.90975,2.19814 0.0617,0.13195 0.12673,0.24095 0.14417,0.24205 0.0174,8.3e-4 0.17414,-0.0845 0.34826,-0.19031 0.58231,-0.35377 1.37216,-0.62756 2.13023,-0.73839 0.269,-0.0394 0.39871,-0.0795 0.39871,-0.12303 0,-0.0357 0.10378,-0.2696 0.23085,-0.51995 0.19537,-0.38522 0.30991,-0.53456 0.74554,-0.97201 0.88336,-0.88708 1.85152,-1.40649 3.26477,-1.75149 0.8486,-0.20719 1.40497,-0.27052 2.35877,-0.26855 3.26564,0.007 6.00597,1.54082 6.58416,3.68577 0.11697,0.43376 0.10879,1.18822 -0.0174,1.61469 l -0.0944,0.31914 0.61374,-0.20698 c 1.60338,-0.54068 3.39062,-0.64079 5.11487,-0.28652 2.2489,0.4621 3.92986,1.69281 4.27172,3.12755 0.07,0.29384 0.0721,0.91879 0.005,1.15174 -0.0786,0.26836 -0.0702,0.27879 0.25549,0.31493 0.85502,0.0949 2.0062,0.43223 2.87067,0.84125 1.56392,0.73995 2.77228,1.88032 3.39942,3.20823 0.96617,2.04572 0.48363,4.29748 -1.28817,6.01107 -1.0034,0.9704 -2.27819,1.66366 -3.76352,2.04664 -0.31365,0.0808 -0.58253,0.16258 -0.59751,0.18145 -1.134,1.43085 -2.14327,2.24849 -3.72816,3.02019 -2.23678,1.08913 -5.07379,1.43897 -7.65297,0.94373 -0.97316,-0.18687 -2.20752,-0.60115 -3.03365,-1.01818 l -0.31239,-0.15776 -0.52276,0.24825 c -1.27474,0.60533 -2.56642,0.98921 -4.13189,1.22803 -0.52677,0.0803 -0.96604,0.10787 -1.90667,0.1196 -0.67221,0.009 -1.32119,0.007 -1.44221,-0.004 z"
       id="path4283"
       inkscape:connector-curvature="0"
       sodipodi:nodetypes="csscssssssssssssscsssssssssssscssssssssscssscssssscssscssscc"
       inkscape:export-filename="/Users/chrisjrn/Desktop/nbp-logo-2"
       inkscape:export-xdpi="187.72"
       inkscape:export-ydpi="187.72" />
    <path
       sodipodi:nodetypes="scccsccccsccsssscccsssscccscccsscsssccccsccssccsscsssccss"
       inkscape:connector-curvature="0"
       id="path4281"
       d="m -499.35519,-187.71957 c -4.82981,0 -8.81315,3.87981 -9.11395,8.87735 l -0.0558,0.93156 -0.62439,-0.0477 c -0.80288,-0.0611 -1.90839,0.17426 -2.79334,0.59415 -0.85885,0.40753 -2.19077,1.7023 -2.63069,2.55743 l -0.29572,0.57532 -0.7716,-0.39453 c -1.64865,-0.84229 -3.26302,-1.22528 -5.16321,-1.22461 -1.34923,3.6e-4 -2.36558,0.16132 -3.56293,0.56324 -3.25908,1.09406 -5.78384,3.68376 -6.70238,6.87581 l -0.24264,0.84282 -0.73329,0 c -3.49951,0 -6.91755,2.02285 -7.87522,4.66115 -0.72516,1.99779 -0.22511,3.86344 1.49076,5.56449 0.75229,0.74581 1.05062,0.96064 1.95385,1.40676 1.56985,0.77536 2.74789,1.05134 4.56707,1.06933 l 1.4585,0.0142 0.7373,0.72186 c 1.02194,1.00068 2.49997,1.67827 3.66039,1.67827 0.35302,0 0.39841,0.0379 0.70706,0.58744 0.5171,0.92049 1.64751,1.96623 2.66294,2.464 1.17862,0.57775 1.96778,0.76489 3.25709,0.7716 1.30045,0.008 2.22869,-0.20762 3.32229,-0.76689 l 0.77362,-0.39589 0.31925,0.38041 c 1.99008,2.37234 4.88347,3.93005 7.99486,4.3036 3.00932,0.36129 6.40531,-0.58816 8.81554,-2.46399 l 0.6439,-0.50141 0.98801,0.42345 c 1.95896,0.84025 3.80621,1.18254 5.88373,1.0895 3.36607,-0.15082 6.22164,-1.37019 8.61255,-3.67852 0.72832,-0.70316 1.63098,-1.73691 1.82481,-2.08962 0.009,-0.0161 0.28596,0.13159 0.61634,0.32732 0.70559,0.41817 2.16384,0.92321 3.10318,1.07472 2.66492,0.42985 5.64125,-0.4933 7.55531,-2.34301 0.37784,-0.36514 0.77628,-0.78459 0.88584,-0.93224 l 0.19962,-0.26817 0.91409,0.31456 c 0.82358,0.28367 1.03605,0.31485 2.14004,0.31455 1.07512,-3.1e-4 1.32599,-0.0349 2.04189,-0.28363 1.97604,-0.6864 3.39,-2.06529 4.04482,-3.94535 0.34001,-0.97598 0.33816,-2.52673 -0.003,-3.56963 -0.48886,-1.49277 -1.68196,-2.87982 -3.08974,-3.59046 -0.81392,-0.41086 -1.99803,-0.70507 -2.83839,-0.70507 l -0.68084,0 -0.26616,-1.07538 c -1.28383,-5.18861 -6.66854,-8.83732 -13.0478,-8.84108 -1.68927,-0.001 -2.57006,0.10323 -4.06497,0.48124 -0.57873,0.14639 -1.06293,0.24968 -1.07606,0.22919 -0.0126,-0.0205 -0.20517,-0.40484 -0.4268,-0.85425 -0.30638,-0.62124 -0.59989,-1.01316 -1.2226,-1.63528 -1.22377,-1.22258 -2.51569,-1.78648 -4.09522,-1.78648 l -0.73194,0 -0.068,-0.51149 c -0.18202,-1.37216 -0.97333,-3.14023 -1.95317,-4.36341 -1.77576,-2.21671 -4.26499,-3.42781 -7.0445,-3.42781 z"
       style="color:#000000;display:inline;overflow:visible;visibility:visible;opacity:1;fill:#ffffff;fill-opacity:1;fill-rule:nonzero;stroke:#b3b3b3;stroke-width:1;stroke-linecap:butt;stroke-linejoin:miter;stroke-miterlimit:4;stroke-dasharray:none;stroke-dashoffset:0;stroke-opacity:1;marker:none;enable-background:accumulate"
       inkscape:export-filename="/Users/chrisjrn/Desktop/nbp-logo-2"
       inkscape:export-xdpi="187.72"
       inkscape:export-ydpi="187.72" />
  </g>
</svg>
